<?xml version="1.0" encoding="utf-8"?>
<!-- Generator: Adobe Illustrator 27.0.0, SVG Export Plug-In . SVG Version: 6.00 Build 0)  -->
<svg version="1.1" id="Layer_1" xmlns="http://www.w3.org/2000/svg" xmlns:xlink="http://www.w3.org/1999/xlink" x="0px" y="0px"
	 viewBox="0 0 552 579" style="enable-background:new 0 0 552 579;" xml:space="preserve">
<style type="text/css">
	.st0{fill-rule:evenodd;clip-rule:evenodd;fill:url(#SVGID_1_);}
	.st1{fill-rule:evenodd;clip-rule:evenodd;fill:url(#SVGID_00000134934106457748839780000005135137722335145371_);}
	.st2{filter:url(#b);}
	.st3{fill-rule:evenodd;clip-rule:evenodd;fill:url(#c_00000091699172499066829950000012564420548242686087_);}
	.st4{fill-rule:evenodd;clip-rule:evenodd;fill:url(#c_00000163053014638751395670000009728969135998304173_);}
	.st5{fill-rule:evenodd;clip-rule:evenodd;fill:url(#SVGID_00000129186645056326009850000002681628759133035649_);}
	.st6{fill-rule:evenodd;clip-rule:evenodd;fill:url(#SVGID_00000168805623256487311360000011889791017976670379_);}
	.st7{fill-rule:evenodd;clip-rule:evenodd;fill:#FFFFFF;}
	.st8{fill-rule:evenodd;clip-rule:evenodd;fill:url(#SVGID_00000181063102071583418450000001449751184576691635_);}
	.st9{filter:url(#e);}
	.st10{fill-rule:evenodd;clip-rule:evenodd;}
	.st11{filter:url(#g);}
	.st12{filter:url(#i);}
	.st13{filter:url(#k);}
	.st14{filter:url(#m);}
	.st15{filter:url(#o);}
</style>
<filter  filterUnits="objectBoundingBox" height="132.2%" id="o" width="164.2%" x="-32.1%" y="-11.5%">
	<feOffset  dy="20" in="SourceAlpha" result="shadowOffsetOuter1"></feOffset>
	<feGaussianBlur  in="shadowOffsetOuter1" result="shadowBlurOuter1" stdDeviation="20"></feGaussianBlur>
	<feColorMatrix  in="shadowBlurOuter1" values="0 0 0 0 0.421821759 0 0 0 0 0.554338424 0 0 0 0 0.893710371 0 0 0 0.243444056 0">
		</feColorMatrix>
</filter>
<filter  filterUnits="objectBoundingBox" height="219.8%" id="m" width="142%" x="-21%" y="-42.8%">
	<feOffset  dy="10" in="SourceAlpha" result="shadowOffsetOuter1"></feOffset>
	<feGaussianBlur  in="shadowOffsetOuter1" result="shadowBlurOuter1" stdDeviation="10"></feGaussianBlur>
	<feColorMatrix  in="shadowBlurOuter1" values="0 0 0 0 0.421821759 0 0 0 0 0.554338424 0 0 0 0 0.893710371 0 0 0 0.243444056 0">
		</feColorMatrix>
</filter>
<filter  filterUnits="objectBoundingBox" height="219.8%" id="k" width="142%" x="-21%" y="-42.8%">
	<feOffset  dy="10" in="SourceAlpha" result="shadowOffsetOuter1"></feOffset>
	<feGaussianBlur  in="shadowOffsetOuter1" result="shadowBlurOuter1" stdDeviation="10"></feGaussianBlur>
	<feColorMatrix  in="shadowBlurOuter1" values="0 0 0 0 0.421821759 0 0 0 0 0.554338424 0 0 0 0 0.893710371 0 0 0 0.243444056 0">
		</feColorMatrix>
</filter>
<filter  filterUnits="objectBoundingBox" height="219.8%" id="i" width="142%" x="-21%" y="-42.8%">
	<feOffset  dy="10" in="SourceAlpha" result="shadowOffsetOuter1"></feOffset>
	<feGaussianBlur  in="shadowOffsetOuter1" result="shadowBlurOuter1" stdDeviation="10"></feGaussianBlur>
	<feColorMatrix  in="shadowBlurOuter1" values="0 0 0 0 0.421821759 0 0 0 0 0.554338424 0 0 0 0 0.893710371 0 0 0 0.243444056 0">
		</feColorMatrix>
</filter>
<filter  filterUnits="objectBoundingBox" height="219.8%" id="g" width="142%" x="-21%" y="-42.8%">
	<feOffset  dy="10" in="SourceAlpha" result="shadowOffsetOuter1"></feOffset>
	<feGaussianBlur  in="shadowOffsetOuter1" result="shadowBlurOuter1" stdDeviation="10"></feGaussianBlur>
	<feColorMatrix  in="shadowBlurOuter1" values="0 0 0 0 0.421821759 0 0 0 0 0.554338424 0 0 0 0 0.893710371 0 0 0 0.243444056 0">
		</feColorMatrix>
</filter>
<filter  filterUnits="objectBoundingBox" height="219.8%" id="e" width="142%" x="-21%" y="-42.8%">
	<feOffset  dy="10" in="SourceAlpha" result="shadowOffsetOuter1"></feOffset>
	<feGaussianBlur  in="shadowOffsetOuter1" result="shadowBlurOuter1" stdDeviation="10"></feGaussianBlur>
	<feColorMatrix  in="shadowBlurOuter1" values="0 0 0 0 0.421821759 0 0 0 0 0.554338424 0 0 0 0 0.893710371 0 0 0 0.243444056 0">
		</feColorMatrix>
</filter>
<filter  filterUnits="objectBoundingBox" height="132.2%" id="b" width="164.2%" x="-32.1%" y="-11.5%">
	<feOffset  dy="20" in="SourceAlpha" result="shadowOffsetOuter1"></feOffset>
	<feGaussianBlur  in="shadowOffsetOuter1" result="shadowBlurOuter1" stdDeviation="20"></feGaussianBlur>
	<feColorMatrix  in="shadowBlurOuter1" values="0 0 0 0 0.421821759 0 0 0 0 0.554338424 0 0 0 0 0.893710371 0 0 0 0.243444056 0">
		</feColorMatrix>
</filter>
<linearGradient id="SVGID_1_" gradientUnits="userSpaceOnUse" x1="-28.3565" y1="685.7581" x2="-28.1239" y2="684.7581" gradientTransform="matrix(204 0 0 -423 5935 290097)">
	<stop  offset="0" style="stop-color:#FF8F71"/>
	<stop  offset="1" style="stop-color:#FF3E55"/>
</linearGradient>
<path class="st0" d="M94,21.3h160c12.2,0,22,9.8,22,22v379c0,12.2-9.8,22-22,22H94c-12.2,0-22-9.8-22-22v-379
	C72,31.2,81.8,21.3,94,21.3z"/>
<linearGradient id="SVGID_00000154411206219606831570000003504247302279401874_" gradientUnits="userSpaceOnUse" x1="-28.79" y1="685.8322" x2="-28.79" y2="685.8322" gradientTransform="matrix(204 0 0 -423 5935 290097)">
	<stop  offset="0" style="stop-color:#FF8F71"/>
	<stop  offset="1" style="stop-color:#FF3E55"/>
</linearGradient>
<path style="fill-rule:evenodd;clip-rule:evenodd;fill:url(#SVGID_00000154411206219606831570000003504247302279401874_);" d="
	M61.8-10"/>
<g class="st2">
	
		<linearGradient id="c_00000058576436243396643220000008321084337026735262_" gradientUnits="userSpaceOnUse" x1="-28.79" y1="685.8322" x2="-28.79" y2="685.8322" gradientTransform="matrix(204 0 0 -423 5935 290097)">
		<stop  offset="0" style="stop-color:#FF8F71"/>
		<stop  offset="1" style="stop-color:#FF3E55"/>
	</linearGradient>
	
		<path id="c_00000021839784714617800750000011517064229477217721_" style="fill-rule:evenodd;clip-rule:evenodd;fill:url(#c_00000058576436243396643220000008321084337026735262_);" d="
		M61.8-10"/>
</g>
<g>
	
		<linearGradient id="c_00000000907943129975648300000008140521813742966400_" gradientUnits="userSpaceOnUse" x1="-28.79" y1="685.8322" x2="-28.79" y2="685.8322" gradientTransform="matrix(204 0 0 -423 5935 290097)">
		<stop  offset="0" style="stop-color:#FF8F71"/>
		<stop  offset="1" style="stop-color:#FF3E55"/>
	</linearGradient>
	
		<path id="c_00000132088185260310313450000015329497136014535341_" style="fill-rule:evenodd;clip-rule:evenodd;fill:url(#c_00000000907943129975648300000008140521813742966400_);" d="
		M61.8-10"/>
</g>
<linearGradient id="SVGID_00000002364993905821521900000011239709400257020325_" gradientUnits="userSpaceOnUse" x1="-28.79" y1="685.8322" x2="-28.79" y2="685.8322" gradientTransform="matrix(204 0 0 -423 5935 290097)">
	<stop  offset="0" style="stop-color:#FF8F71"/>
	<stop  offset="1" style="stop-color:#FF3E55"/>
</linearGradient>
<path style="fill-rule:evenodd;clip-rule:evenodd;fill:url(#SVGID_00000002364993905821521900000011239709400257020325_);" d="
	M61.8-10"/>
<linearGradient id="SVGID_00000078750985582694906670000010192412463079691962_" gradientUnits="userSpaceOnUse" x1="-28.3671" y1="685.8203" x2="-28.1345" y2="684.8203" gradientTransform="matrix(204 0 0 -423 6188 290160)">
	<stop  offset="0" style="stop-color:#FF8F71"/>
	<stop  offset="1" style="stop-color:#FF3E55"/>
</linearGradient>
<path style="fill-rule:evenodd;clip-rule:evenodd;fill:url(#SVGID_00000078750985582694906670000010192412463079691962_);" d="
	M344.8,58h160c12.2,0,22,9.8,22,22v379c0,12.2-9.8,22-22,22h-160c-12.2,0-22-9.8-22-22V80C322.8,67.8,332.7,58,344.8,58z"/>
<path class="st7" d="M351.8,64h145.3c12.2,0,22,9.8,22,22v370.3c0,12.2-9.8,22-22,22H351.8c-12.2,0-22-9.8-22-22V86
	C329.8,73.8,339.7,64,351.8,64z"/>
<linearGradient id="SVGID_00000164500171001917593490000003353914436611668099_" gradientUnits="userSpaceOnUse" x1="-28.7315" y1="684.5376" x2="-27.7315" y2="684.3878" gradientTransform="matrix(189.335 0 0 -73.269 5769.7153 50250.5312)">
	<stop  offset="0" style="stop-color:#FF8F71"/>
	<stop  offset="1" style="stop-color:#FF3E55"/>
</linearGradient>
<path style="fill-rule:evenodd;clip-rule:evenodd;fill:url(#SVGID_00000164500171001917593490000003353914436611668099_);" d="
	M351.8,64h145.3c12.2,0,22,9.8,22,22v29.3c0,12.2-9.8,22-22,22H351.8c-12.2,0-22-9.8-22-22V86C329.8,73.8,339.7,64,351.8,64z"/>
<g transform="translate(26.343 57.23)">
	<g class="st9">
		<path id="f_00000034808510024554659940000013948091470219764356_" class="st10" d="M318.8,53h158.6c2.2,0,4,1.8,4,4v50.4
			c0,2.2-1.8,4-4,4H318.8c-2.2,0-4-1.8-4-4V57C314.8,54.8,316.6,53,318.8,53z"/>
	</g>
	<g>
		<path id="f_00000149370901660995666900000000232621821598479804_" class="st7" d="M318.8,53h158.6c2.2,0,4,1.8,4,4v50.4
			c0,2.2-1.8,4-4,4H318.8c-2.2,0-4-1.8-4-4V57C314.8,54.8,316.6,53,318.8,53z"/>
	</g>
</g>
<g transform="translate(26.343 57.23)">
	<g class="st11">
		<path id="h_00000003096326865619431020000013770061990569431742_" class="st10" d="M318.8,125.4h158.6c2.2,0,4,1.8,4,4v50.4
			c0,2.2-1.8,4-4,4H318.8c-2.2,0-4-1.8-4-4v-50.4C314.8,127.2,316.6,125.4,318.8,125.4z"/>
	</g>
	<g>
		<path id="h_00000058558886734139135270000013370970351170843793_" class="st7" d="M318.8,125.4h158.6c2.2,0,4,1.8,4,4v50.4
			c0,2.2-1.8,4-4,4H318.8c-2.2,0-4-1.8-4-4v-50.4C314.8,127.2,316.6,125.4,318.8,125.4z"/>
	</g>
</g>
<g transform="translate(26.343 57.23)">
	<g class="st12">
		<path id="j_00000096036365154496265390000010943255473688483513_" class="st10" d="M318.8,197.8h158.6c2.2,0,4,1.8,4,4v50.4
			c0,2.2-1.8,4-4,4H318.8c-2.2,0-4-1.8-4-4v-50.4C314.8,199.6,316.6,197.8,318.8,197.8z"/>
	</g>
	<g>
		<path id="j_00000030461787101862438000000002295640465558837397_" class="st7" d="M318.8,197.8h158.6c2.2,0,4,1.8,4,4v50.4
			c0,2.2-1.8,4-4,4H318.8c-2.2,0-4-1.8-4-4v-50.4C314.8,199.6,316.6,197.8,318.8,197.8z"/>
	</g>
</g>
<g transform="translate(26.343 57.23)">
	<g class="st13">
		<path id="l_00000161596261686896757880000003484967909486389668_" class="st10" d="M318.8,270.2h158.6c2.2,0,4,1.8,4,4v50.4
			c0,2.2-1.8,4-4,4H318.8c-2.2,0-4-1.8-4-4v-50.4C314.8,272,316.6,270.2,318.8,270.2z"/>
	</g>
	<g>
		<path id="l_00000103263991820040243110000002648128359945821849_" class="st7" d="M318.8,270.2h158.6c2.2,0,4,1.8,4,4v50.4
			c0,2.2-1.8,4-4,4H318.8c-2.2,0-4-1.8-4-4v-50.4C314.8,272,316.6,270.2,318.8,270.2z"/>
	</g>
</g>
<g transform="translate(26.343 57.23)">
	<g class="st14">
		<path id="n_00000180352477929583121640000009050628912014400678_" class="st10" d="M318.8,342.6h158.6c2.2,0,4,1.8,4,4V397
			c0,2.2-1.8,4-4,4H318.8c-2.2,0-4-1.8-4-4v-50.4C314.8,344.4,316.6,342.6,318.8,342.6z"/>
	</g>
	<g>
		<path id="n_00000025412176603806495000000005626310403903754144_" class="st7" d="M318.8,342.6h158.6c2.2,0,4,1.8,4,4V397
			c0,2.2-1.8,4-4,4H318.8c-2.2,0-4-1.8-4-4v-50.4C314.8,344.4,316.6,342.6,318.8,342.6z"/>
	</g>
</g>
<path class="st7" d="M314.8,53"/>
<g>
	<g class="st15">
		<path id="p_00000178183281514102962230000013596817043371739292_" class="st7" d="M314.8,53"/>
	</g>
	<g>
		<path id="p_00000111910325315076750020000015219321040179435700_" class="st7" d="M314.8,53"/>
	</g>
	<path class="st7" d="M314.8,53"/>
</g>
</svg>
